<?xml version="1.0" encoding="UTF-8" standalone="no"?>
<!-- Created with Inkscape (http://www.inkscape.org/) -->

<svg
   xmlns:dc="http://purl.org/dc/elements/1.1/"
   xmlns:cc="http://creativecommons.org/ns#"
   xmlns:rdf="http://www.w3.org/1999/02/22-rdf-syntax-ns#"
   xmlns:svg="http://www.w3.org/2000/svg"
   xmlns="http://www.w3.org/2000/svg"
   xmlns:sodipodi="http://sodipodi.sourceforge.net/DTD/sodipodi-0.dtd"
   xmlns:inkscape="http://www.inkscape.org/namespaces/inkscape"
   width="142.73508"
   height="123.70803"
   viewBox="0 0 142.73508 123.70803"
   id="svg3372"
   version="1.1"
   inkscape:version="0.91 r13725"
   sodipodi:docname="Latin_U_with_hook_-_uppercase_and_lowercase.svg">
  <defs
     id="defs3374" />
  <sodipodi:namedview
     id="base"
     pagecolor="#ffffff"
     bordercolor="#666666"
     borderopacity="1.0"
     inkscape:pageopacity="0.0"
     inkscape:pageshadow="2"
     inkscape:zoom="0.70710678"
     inkscape:cx="64.802599"
     inkscape:cy="-43.593517"
     inkscape:document-units="px"
     inkscape:current-layer="g3529"
     showgrid="false"
     showguides="true"
     inkscape:guide-bbox="true"
     inkscape:snap-intersection-paths="true"
     inkscape:object-nodes="true"
     units="px"
     inkscape:snap-to-guides="true"
     inkscape:window-width="1366"
     inkscape:window-height="705"
     inkscape:window-x="-8"
     inkscape:window-y="-8"
     inkscape:window-maximized="1"
     inkscape:snap-bbox="false"
     inkscape:object-paths="false"
     inkscape:snap-center="true"
     inkscape:snap-object-midpoints="false"
     inkscape:snap-text-baseline="true"
     fit-margin-top="0"
     fit-margin-left="0"
     fit-margin-right="0"
     fit-margin-bottom="0">
    <inkscape:grid
       type="xygrid"
       id="grid4557"
       originx="-93.555923"
       originy="-88.442362" />
  </sodipodi:namedview>
  <metadata
     id="metadata3377">
    <rdf:RDF>
      <cc:Work
         rdf:about="">
        <dc:format>image/svg+xml</dc:format>
        <dc:type
           rdf:resource="http://purl.org/dc/dcmitype/StillImage" />
        <dc:title></dc:title>
      </cc:Work>
    </rdf:RDF>
  </metadata>
  <g
     inkscape:label="Lines"
     inkscape:groupmode="layer"
     id="layer1"
     transform="translate(-93.555927,-840.21177)"
     style="display:inline" />
  <g
     inkscape:groupmode="layer"
     id="layer4"
     inkscape:label="Info"
     style="display:inline"
     transform="translate(-93.555927,-87.849609)" />
  <g
     inkscape:groupmode="layer"
     id="layer2"
     inkscape:label="Outline letter"
     style="display:inline"
     transform="translate(-93.555927,-87.849609)">
    <g
       id="g3428">
      <g
         id="g3414"
         style="display:inline" />
    </g>
    <g
       style="font-style:normal;font-weight:normal;font-size:80px;line-height:125%;font-family:sans-serif;text-align:center;letter-spacing:0px;word-spacing:-70px;text-anchor:middle;display:inline;fill:#000000;fill-opacity:1;stroke:none;stroke-width:1px;stroke-linecap:butt;stroke-linejoin:miter;stroke-opacity:1"
       id="text3393-4" />
    <g
       id="g3529"
       transform="translate(-22.675419,0)">
      <path
         style="fill:#000000"
         d="m 115.91211,87.849609 c -1.32962,3e-5 -2.65403,0.04169 -3.22266,0.121094 -6.66911,0.93158 -11.95493,4.051896 -15.154294,8.947266 -0.81996,1.25462 -2.03313,3.690681 -2.511718,5.041011 -0.69918,1.97273 -1.202109,4.35653 -1.392579,6.61329 -0.15377,1.82187 -0.0596,5.50875 0.179688,7.08593 0.84955,5.59947 2.977879,9.88304 6.791013,13.66407 1.09276,1.08356 3.05008,2.73437 3.24219,2.73437 0.0438,0 0.71356,-0.57345 1.48828,-1.27344 l 1.41016,-1.27148 -1.35352,-1.31055 c -4.29365,-4.15408 -6.587964,-8.81114 -7.191404,-14.60351 -0.13192,-1.26603 -0.111868,-3.89737 0.03906,-5.10352 0.78611,-6.28389 4.615204,-11.436728 9.712894,-13.074218 1.73749,-0.55816 2.30127,-0.640778 4.41992,-0.642578 1.80207,-0.002 1.97169,0.0118 2.88477,0.25 2.42519,0.6326 4.30375,1.737162 6.23828,3.664062 2.4565,2.446784 3.95775,5.365474 4.5,8.753904 0.27066,1.69132 0.3015,4.27117 0.36914,30.26172 0.0449,17.2407 0.10502,27.13212 0.16992,28.25781 0.42391,7.35619 0.90511,11.5593 1.84375,16.08789 1.29281,6.23733 3.07237,10.39631 6.21875,14.53125 5.8397,7.67449 15.02136,12.47021 27.22656,14.22071 2.51502,0.36072 4.25478,0.51719 8.11328,0.72851 1.40108,0.0767 7.80249,-0.0402 9.32227,-0.16992 5.27414,-0.45012 9.3814,-1.24255 13.46484,-2.60156 14.742,-4.9062 23.16758,-16.05534 25.56055,-33.81836 0.84962,-6.30665 1.10328,-12.94378 1.02148,-26.80664 -0.19581,-33.1478 -0.16126,-42.00621 0.16993,-44.1543 0.53279,-3.45565 1.58502,-5.695524 3.64257,-7.753904 1.30605,-1.30658 2.68793,-2.161768 4.38086,-2.710938 1.64205,-0.53266 3.17053,-0.693719 6.67579,-0.699219 l 2.11914,-0.0039 0,-1.548828 0,-1.548828 -21.10157,0 -21.10156,0 0,1.548828 0,1.548828 2.0293,0.002 c 5.13207,0.002 7.58096,0.345822 9.68359,1.357422 1.98699,0.95596 2.97279,2.03046 3.8125,4.15625 0.8304,2.102209 1.32233,5.021339 1.52539,9.070309 0.0683,1.34703 0.088,11.12088 0.0645,31.26367 -0.0366,31.43559 -0.0191,30.0595 -0.48242,34.22852 -1.10324,9.92757 -4.05006,17.16268 -8.65625,21.24804 -5.69859,5.05429 -12.53146,8.23008 -20.28125,9.42383 -2.82787,0.43568 -3.73169,0.49505 -7.47461,0.49805 -2.9438,0.002 -3.85085,-0.0277 -4.96875,-0.16406 -4.12669,-0.50344 -7.37678,-1.40438 -10.39062,-2.88282 -2.43921,-1.19656 -4.06494,-2.32451 -5.9043,-4.0957 -1.4176,-1.36507 -2.32919,-2.45556 -3.39062,-4.05273 -1.88857,-2.84182 -3.23146,-6.01352 -4.29102,-10.14063 -0.91874,-3.5786 -1.42042,-7.0371 -1.87695,-12.93359 -0.0741,-0.95701 -0.12575,-8.56005 -0.17188,-25.33985 -0.0641,-23.29627 -0.0838,-24.92887 -0.36328,-28.75781 -0.3059,-4.19103 -0.88802,-7.45264 -1.80664,-10.11914 -1.88987,-5.48598 -5.46671,-10.113961 -10.31641,-13.353511 -3.37327,-2.2533 -7.18959,-3.645736 -11.66796,-4.253906 -0.58474,-0.0794 -1.91843,-0.119161 -3.24805,-0.119141 z"
         transform="translate(22.675419,0)"
         id="path3424"
         inkscape:connector-curvature="0" />
    </g>
  </g>
  <g
     inkscape:groupmode="layer"
     id="layer3"
     inkscape:label="Text letter"
     style="display:none"
     transform="translate(-93.555927,-87.849609)">
    <text
       sodipodi:linespacing="125%"
       id="text3393"
       y="210.00003"
       x="224.209"
       style="font-style:normal;font-weight:normal;font-size:80px;line-height:125%;font-family:sans-serif;text-align:center;letter-spacing:0px;word-spacing:-70px;text-anchor:middle;display:inline;fill:#000000;fill-opacity:1;stroke:none;stroke-width:1px;stroke-linecap:butt;stroke-linejoin:miter;stroke-opacity:1"
       xml:space="preserve"><tspan
         style="font-style:normal;font-variant:normal;font-weight:normal;font-stretch:normal;font-size:180px;font-family:Universalia;-inkscape-font-specification:Universalia;text-align:center;letter-spacing:0px;word-spacing:-70px;text-anchor:middle"
         y="210.00003"
         x="224.209"
         id="tspan3395"
         sodipodi:role="line">ꭒ</tspan></text>
  </g>
</svg>
